# xmcd CD database file
#
# Track frame offsets:
#	150
#	23157
#	40432
#	63075
#	82185
#	104367
#	128527
#	146892
#	167487
#	186100
#	203445
#	225037
#	249462
#	270532
#	289932
#	311562
#	341085
#
# Disc length: 4795 seconds
#
# Revision: 0
# Processed by: cddbd v1.5.1PL0 Copyright (c) Steve Scherf et al.
# Submitted via: CDex 1.51
#
DISCID=e912b911
DTITLE=K DUB SHINE - 世界遺産
DYEAR=2003
DGENRE=Hip-Hop
TTITLE0=マキシマムリスペクト
TTITLE1=頭脳旅行
TTITLE2=セイブザチルドレン
TTITLE3=ザ シャイニング
TTITLE4=日出ずる処
TTITLE5=セントオブウーマン 〜夢の香り〜
TTITLE6=天国と地獄(LIFE REMIX)
TTITLE7=マジ興味ねえ
TTITLE8=ILL STREET BLUSE
TTITLE9=WORLD WIDE
TTITLE10=禁じられた遊び（SWEET TABOO REMIX) feat. MAYUMI
TTITLE11=説明不要(Mr.DRUNK REMIX) feat. RHYMESTER
TTITLE12=機能停止
TTITLE13=ラストエンペラー
TTITLE14=陽はまた昇る
TTITLE15=ザ シャイニング(KG STILL SHINING REMIX)
TTITLE16=cccd
EXTD=YEAR: 2003
EXTT0=
EXTT1=
EXTT2=
EXTT3=
EXTT4=
EXTT5=
EXTT6=
EXTT7=
EXTT8=
EXTT9=
EXTT10=
EXTT11=
EXTT12=
EXTT13=
EXTT14=
EXTT15=
EXTT16=
PLAYORDER=
